<svg width="18" height="19" viewBox="0 0 18 19" fill="none" xmlns="http://www.w3.org/2000/svg">
<path d="M17.25 2.92308H13.5V2.19231C13.5 1.61087 13.2629 1.05325 12.841 0.642112C12.419 0.230975 11.8467 0 11.25 0H6.75C6.15326 0 5.58097 0.230975 5.15901 0.642112C4.73705 1.05325 4.5 1.61087 4.5 2.19231V2.92308H0.75C0.551088 2.92308 0.360322 3.00007 0.21967 3.13711C0.0790178 3.27416 0 3.46003 0 3.65385C0 3.84766 0.0790178 4.03353 0.21967 4.17058C0.360322 4.30762 0.551088 4.38462 0.75 4.38462H1.5V17.5385C1.5 17.9261 1.65804 18.2978 1.93934 18.5719C2.22064 18.846 2.60218 19 3 19H15C15.3978 19 15.7794 18.846 16.0607 18.5719C16.342 18.2978 16.5 17.9261 16.5 17.5385V4.38462H17.25C17.4489 4.38462 17.6397 4.30762 17.7803 4.17058C17.921 4.03353 18 3.84766 18 3.65385C18 3.46003 17.921 3.27416 17.7803 3.13711C17.6397 3.00007 17.4489 2.92308 17.25 2.92308ZM6 2.19231C6 1.9985 6.07902 1.81262 6.21967 1.67558C6.36032 1.53853 6.55109 1.46154 6.75 1.46154H11.25C11.4489 1.46154 11.6397 1.53853 11.7803 1.67558C11.921 1.81262 12 1.9985 12 2.19231V2.92308H6V2.19231ZM15 17.5385H3V4.38462H15V17.5385ZM7.5 8.03846V13.8846C7.5 14.0784 7.42098 14.2643 7.28033 14.4013C7.13968 14.5384 6.94891 14.6154 6.75 14.6154C6.55109 14.6154 6.36032 14.5384 6.21967 14.4013C6.07902 14.2643 6 14.0784 6 13.8846V8.03846C6 7.84465 6.07902 7.65878 6.21967 7.52173C6.36032 7.38468 6.55109 7.30769 6.75 7.30769C6.94891 7.30769 7.13968 7.38468 7.28033 7.52173C7.42098 7.65878 7.5 7.84465 7.5 8.03846ZM12 8.03846V13.8846C12 14.0784 11.921 14.2643 11.7803 14.4013C11.6397 14.5384 11.4489 14.6154 11.25 14.6154C11.0511 14.6154 10.8603 14.5384 10.7197 14.4013C10.579 14.2643 10.5 14.0784 10.5 13.8846V8.03846C10.5 7.84465 10.579 7.65878 10.7197 7.52173C10.8603 7.38468 11.0511 7.30769 11.25 7.30769C11.4489 7.30769 11.6397 7.38468 11.7803 7.52173C11.921 7.65878 12 7.84465 12 8.03846Z" fill="#CCCDD0"/>
</svg>
