<svg width="21" height="13" viewBox="0 0 21 13" fill="none" xmlns="http://www.w3.org/2000/svg">
<path d="M19.2294 0.802948C19.3296 0.699938 19.4475 0.619407 19.5763 0.565953C19.705 0.5125 19.8422 0.48717 19.98 0.491411C20.1178 0.495652 20.2535 0.52938 20.3793 0.59067C20.5051 0.65196 20.6186 0.739612 20.7133 0.84862C20.8079 0.957628 20.8819 1.08586 20.9311 1.22599C20.9802 1.36612 21.0035 1.51541 20.9996 1.66533C20.9957 1.81525 20.9647 1.96286 20.9084 2.09975C20.852 2.23663 20.7715 2.36011 20.6713 2.46312L11.2268 12.1684C11.032 12.3688 10.774 12.4805 10.5059 12.4805C10.2378 12.4805 9.97981 12.3688 9.78497 12.1684L0.339464 2.46312C0.237085 2.36079 0.154411 2.23734 0.0962505 2.09995C0.0380878 1.96256 0.0055961 1.81397 0.000659891 1.6628C-0.00427632 1.51164 0.018444 1.36091 0.0674972 1.21938C0.116552 1.07784 0.190962 0.948325 0.286409 0.838346C0.381855 0.728368 0.496433 0.640121 0.623489 0.578731C0.750547 0.517341 0.887547 0.484032 1.02654 0.480739C1.16552 0.477445 1.30373 0.504232 1.43312 0.559546C1.56251 0.614859 1.68051 0.697595 1.78027 0.802947L10.5059 9.76832L19.2294 0.802948Z" fill="#E5E7EB"/>
</svg>
