<svg width="64" height="64" viewBox="0 0 64 64" fill="none" xmlns="http://www.w3.org/2000/svg">
<path d="M31.9999 17.5999C31.9999 21.4191 30.4828 25.0818 27.7823 27.7823C25.0818 30.4828 21.4191 31.9999 17.5999 31.9999C13.7808 31.9999 10.1181 30.4828 7.41761 27.7823C4.71709 25.0818 3.19995 21.4191 3.19995 17.5999C3.19995 13.7808 4.71709 10.1181 7.41761 7.41761C10.1181 4.71709 13.7808 3.19995 17.5999 3.19995C21.4191 3.19995 25.0818 4.71709 27.7823 7.41761C30.4828 10.1181 31.9999 13.7808 31.9999 17.5999ZM19.1999 11.2C19.1999 10.7756 19.0314 10.3686 18.7313 10.0686C18.4313 9.76852 18.0243 9.59995 17.5999 9.59995C17.1756 9.59995 16.7686 9.76852 16.4686 10.0686C16.1685 10.3686 15.9999 10.7756 15.9999 11.2V15.9999H11.2C10.7756 15.9999 10.3686 16.1685 10.0686 16.4686C9.76852 16.7686 9.59995 17.1756 9.59995 17.5999C9.59995 18.0243 9.76852 18.4313 10.0686 18.7313C10.3686 19.0314 10.7756 19.1999 11.2 19.1999H15.9999V23.9999C15.9999 24.4243 16.1685 24.8313 16.4686 25.1313C16.7686 25.4314 17.1756 25.5999 17.5999 25.5999C18.0243 25.5999 18.4313 25.4314 18.7313 25.1313C19.0314 24.8313 19.1999 24.4243 19.1999 23.9999V19.1999H23.9999C24.4243 19.1999 24.8313 19.0314 25.1313 18.7313C25.4314 18.4313 25.5999 18.0243 25.5999 17.5999C25.5999 17.1756 25.4314 16.7686 25.1313 16.4686C24.8313 16.1685 24.4243 15.9999 23.9999 15.9999H19.1999V11.2ZM44.7999 12.7999H34.5375C34.2245 11.6946 33.8032 10.6227 33.2799 9.59995H44.7999C47.346 9.59995 49.7878 10.6114 51.5882 12.4117C53.3885 14.2121 54.3999 16.6539 54.3999 19.1999V44.7999C54.3999 47.346 53.3885 49.7878 51.5882 51.5882C49.7878 53.3885 47.346 54.3999 44.7999 54.3999H19.1999C16.6539 54.3999 14.2121 53.3885 12.4117 51.5882C10.6114 49.7878 9.59995 47.346 9.59995 44.7999V33.2799C10.6144 33.7983 11.6832 34.2207 12.7999 34.5375V44.7999C12.7999 45.9935 13.1264 47.1103 13.696 48.0639L28.6367 33.3823C29.5343 32.5009 30.742 32.0071 31.9999 32.0071C33.2579 32.0071 34.4656 32.5009 35.3631 33.3823L50.3071 48.0639C50.8937 47.0764 51.2022 45.9486 51.1999 44.7999V19.1999C51.1999 17.5026 50.5257 15.8747 49.3254 14.6745C48.1252 13.4742 46.4973 12.7999 44.7999 12.7999ZM44.7999 23.9999C44.7999 24.6303 44.6758 25.2545 44.4346 25.8368C44.1933 26.4192 43.8398 26.9483 43.3941 27.3941C42.9483 27.8398 42.4192 28.1933 41.8368 28.4346C41.2545 28.6758 40.6303 28.7999 39.9999 28.7999C39.3696 28.7999 38.7454 28.6758 38.1631 28.4346C37.5807 28.1933 37.0516 27.8398 36.6058 27.3941C36.1601 26.9483 35.8065 26.4192 35.5653 25.8368C35.3241 25.2545 35.1999 24.6303 35.1999 23.9999C35.1999 22.7269 35.7057 21.506 36.6058 20.6058C37.506 19.7057 38.7269 19.1999 39.9999 19.1999C41.273 19.1999 42.4939 19.7057 43.3941 20.6058C44.2942 21.506 44.7999 22.7269 44.7999 23.9999ZM41.5999 23.9999C41.5999 23.5756 41.4314 23.1686 41.1313 22.8686C40.8313 22.5685 40.4243 22.3999 39.9999 22.3999C39.5756 22.3999 39.1686 22.5685 38.8686 22.8686C38.5685 23.1686 38.3999 23.5756 38.3999 23.9999C38.3999 24.4243 38.5685 24.8313 38.8686 25.1313C39.1686 25.4314 39.5756 25.5999 39.9999 25.5999C40.4243 25.5999 40.8313 25.4314 41.1313 25.1313C41.4314 24.8313 41.5999 24.4243 41.5999 23.9999ZM15.9615 50.3231C16.9432 50.8996 18.0615 51.2024 19.1999 51.1999H44.7999C45.9839 51.1999 47.0879 50.8799 48.0383 50.3231L33.1199 35.6671C32.8209 35.374 32.4188 35.2098 31.9999 35.2098C31.5811 35.2098 31.179 35.374 30.8799 35.6671L15.9615 50.3231Z" fill="#7163E8"/>
</svg>
