<svg width="96" height="96" viewBox="0 0 96 96" fill="none" xmlns="http://www.w3.org/2000/svg">
<rect width="96" height="96" rx="8" fill="#F3F3F3"/>
<path d="M47.9999 33.5999C47.9999 37.4191 46.4828 41.0818 43.7823 43.7823C41.0818 46.4828 37.4191 47.9999 33.5999 47.9999C29.7808 47.9999 26.1181 46.4828 23.4176 43.7823C20.7171 41.0818 19.2 37.4191 19.2 33.5999C19.2 29.7808 20.7171 26.1181 23.4176 23.4176C26.1181 20.7171 29.7808 19.2 33.5999 19.2C37.4191 19.2 41.0818 20.7171 43.7823 23.4176C46.4828 26.1181 47.9999 29.7808 47.9999 33.5999ZM35.1999 27.2C35.1999 26.7756 35.0314 26.3686 34.7313 26.0686C34.4313 25.7685 34.0243 25.6 33.5999 25.6C33.1756 25.6 32.7686 25.7685 32.4686 26.0686C32.1685 26.3686 31.9999 26.7756 31.9999 27.2V31.9999H27.2C26.7756 31.9999 26.3686 32.1685 26.0686 32.4686C25.7685 32.7686 25.6 33.1756 25.6 33.5999C25.6 34.0243 25.7685 34.4313 26.0686 34.7313C26.3686 35.0314 26.7756 35.1999 27.2 35.1999H31.9999V39.9999C31.9999 40.4243 32.1685 40.8313 32.4686 41.1313C32.7686 41.4314 33.1756 41.5999 33.5999 41.5999C34.0243 41.5999 34.4313 41.4314 34.7313 41.1313C35.0314 40.8313 35.1999 40.4243 35.1999 39.9999V35.1999H39.9999C40.4243 35.1999 40.8313 35.0314 41.1313 34.7313C41.4314 34.4313 41.5999 34.0243 41.5999 33.5999C41.5999 33.1756 41.4314 32.7686 41.1313 32.4686C40.8313 32.1685 40.4243 31.9999 39.9999 31.9999H35.1999V27.2ZM60.7999 28.7999H50.5375C50.2245 27.6946 49.8032 26.6227 49.2799 25.6H60.7999C63.346 25.6 65.7878 26.6114 67.5882 28.4117C69.3885 30.2121 70.3999 32.6539 70.3999 35.1999V60.7999C70.3999 63.346 69.3885 65.7878 67.5882 67.5882C65.7878 69.3885 63.346 70.3999 60.7999 70.3999H35.1999C32.6539 70.3999 30.2121 69.3885 28.4117 67.5882C26.6114 65.7878 25.6 63.346 25.6 60.7999V49.2799C26.6144 49.7983 27.6832 50.2207 28.7999 50.5375V60.7999C28.7999 61.9935 29.1264 63.1103 29.696 64.0639L44.6367 49.3823C45.5343 48.5009 46.742 48.0071 47.9999 48.0071C49.2579 48.0071 50.4656 48.5009 51.3631 49.3823L66.3071 64.0639C66.8937 63.0764 67.2022 61.9486 67.1999 60.7999V35.1999C67.1999 33.5026 66.5257 31.8747 65.3254 30.6745C64.1252 29.4742 62.4973 28.7999 60.7999 28.7999ZM60.7999 39.9999C60.7999 40.6303 60.6758 41.2545 60.4346 41.8368C60.1933 42.4192 59.8398 42.9483 59.3941 43.3941C58.9483 43.8398 58.4192 44.1933 57.8368 44.4346C57.2545 44.6758 56.6303 44.7999 55.9999 44.7999C55.3696 44.7999 54.7454 44.6758 54.1631 44.4346C53.5807 44.1933 53.0516 43.8398 52.6058 43.3941C52.1601 42.9483 51.8065 42.4192 51.5653 41.8368C51.3241 41.2545 51.1999 40.6303 51.1999 39.9999C51.1999 38.7269 51.7057 37.506 52.6058 36.6058C53.506 35.7057 54.7269 35.1999 55.9999 35.1999C57.273 35.1999 58.4939 35.7057 59.3941 36.6058C60.2942 37.506 60.7999 38.7269 60.7999 39.9999ZM57.5999 39.9999C57.5999 39.5756 57.4314 39.1686 57.1313 38.8686C56.8313 38.5685 56.4243 38.3999 55.9999 38.3999C55.5756 38.3999 55.1686 38.5685 54.8686 38.8686C54.5685 39.1686 54.3999 39.5756 54.3999 39.9999C54.3999 40.4243 54.5685 40.8313 54.8686 41.1313C55.1686 41.4314 55.5756 41.5999 55.9999 41.5999C56.4243 41.5999 56.8313 41.4314 57.1313 41.1313C57.4314 40.8313 57.5999 40.4243 57.5999 39.9999ZM31.9615 66.3231C32.9432 66.8996 34.0615 67.2024 35.1999 67.1999H60.7999C61.9839 67.1999 63.0879 66.8799 64.0383 66.3231L49.1199 51.6671C48.8209 51.374 48.4188 51.2098 47.9999 51.2098C47.5811 51.2098 47.179 51.374 46.8799 51.6671L31.9615 66.3231Z" fill="#7163E8"/>
</svg>
