<svg width="20" height="20" viewBox="0 0 20 20" fill="none" xmlns="http://www.w3.org/2000/svg">
<path d="M6.05556 4.44444C6.05556 3.39831 6.47113 2.39503 7.21086 1.6553C7.95058 0.915574 8.95387 0.5 10 0.5C11.0461 0.5 12.0494 0.915574 12.7891 1.6553C13.5289 2.39503 13.9444 3.39831 13.9444 4.44444C13.9444 5.49058 13.5289 6.49386 12.7891 7.23359C12.0494 7.97332 11.0461 8.38889 10 8.38889C8.95387 8.38889 7.95058 7.97332 7.21086 7.23359C6.47113 6.49386 6.05556 5.49058 6.05556 4.44444ZM1.98074 13.0918C2.92884 12.1437 4.21474 11.6111 5.55556 11.6111H14.4444C15.7853 11.6111 17.0712 12.1437 18.0193 13.0918C18.9674 14.04 19.5 15.3258 19.5 16.6667C19.5 17.4181 19.2015 18.1388 18.6701 18.6701C18.1388 19.2015 17.4181 19.5 16.6667 19.5H3.33333C2.58189 19.5 1.86122 19.2015 1.32986 18.6701C0.798511 18.1388 0.5 17.4181 0.5 16.6667C0.5 15.3258 1.03264 14.04 1.98074 13.0918Z" stroke="#9D9D9D"/>
</svg>
