<svg width="48" height="48" viewBox="0 0 48 48" fill="none" xmlns="http://www.w3.org/2000/svg">
<rect x="0.5" y="0.5" width="47" height="47" rx="23.5" fill="#F3F2FD"/>
<path d="M24.5 20.5C24.5 23.0358 23.7959 25.3094 22.6835 26.9352C21.5695 28.5633 20.0818 29.5 18.5 29.5C16.9182 29.5 15.4305 28.5633 14.3165 26.9352C13.2041 25.3094 12.5 23.0358 12.5 20.5C12.5 17.9642 13.2041 15.6906 14.3165 14.0648C15.4305 12.4367 16.9182 11.5 18.5 11.5C20.0818 11.5 21.5695 12.4367 22.6835 14.0648C23.7959 15.6906 24.5 17.9642 24.5 20.5Z" fill="#F3F2FD" stroke="#7163E8"/>
<path d="M19.5 20.5C19.5 21.9246 19.0793 23.194 18.4241 24.095C17.7684 24.9965 16.9052 25.5 16 25.5C15.0948 25.5 14.2316 24.9965 13.5759 24.095C12.9207 23.194 12.5 21.9246 12.5 20.5C12.5 19.0754 12.9207 17.806 13.5759 16.905C14.2316 16.0035 15.0948 15.5 16 15.5C16.9052 15.5 17.7684 16.0035 18.4241 16.905C19.0793 17.806 19.5 19.0754 19.5 20.5Z" fill="#7163E8" stroke="#7163E8"/>
<path d="M35.5 20.5C35.5 23.0358 34.7959 25.3094 33.6835 26.9352C32.5695 28.5633 31.0818 29.5 29.5 29.5C27.9182 29.5 26.4305 28.5633 25.3165 26.9352C24.2041 25.3094 23.5 23.0358 23.5 20.5C23.5 17.9642 24.2041 15.6906 25.3165 14.0648C26.4305 12.4367 27.9182 11.5 29.5 11.5C31.0818 11.5 32.5695 12.4367 33.6835 14.0648C34.7959 15.6906 35.5 17.9642 35.5 20.5Z" fill="#F3F2FD" stroke="#7163E8"/>
<path d="M30.5 20.5C30.5 21.9246 30.0793 23.194 29.4241 24.095C28.7684 24.9965 27.9052 25.5 27 25.5C26.0948 25.5 25.2316 24.9965 24.5759 24.095C23.9207 23.194 23.5 21.9246 23.5 20.5C23.5 19.0754 23.9207 17.806 24.5759 16.905C25.2316 16.0035 26.0948 15.5 27 15.5C27.9052 15.5 28.7684 16.0035 29.4241 16.905C30.0793 17.806 30.5 19.0754 30.5 20.5Z" fill="#7163E8" stroke="#7163E8"/>
<rect x="0.5" y="0.5" width="47" height="47" rx="23.5" stroke="#7163E8"/>
</svg>
