<svg width="96" height="96" viewBox="0 0 96 96" fill="none" xmlns="http://www.w3.org/2000/svg">
<circle cx="48" cy="48" r="44" fill="#F3F2FD"/>
<path fill-rule="evenodd" clip-rule="evenodd" d="M37.5802 34.8642C37.5802 31.9828 38.7249 29.2195 40.7623 27.182C42.7997 25.1446 45.5631 24 48.4444 24C51.3258 24 54.0892 25.1446 56.1266 27.182C58.164 29.2195 59.3086 31.9828 59.3086 34.8642C59.3086 37.7456 58.164 40.5089 56.1266 42.5463C54.0892 44.5838 51.3258 45.7284 48.4444 45.7284C45.5631 45.7284 42.7997 44.5838 40.7623 42.5463C38.7249 40.5089 37.5802 37.7456 37.5802 34.8642ZM37.5802 51.1605C33.9785 51.1605 30.5244 52.5913 27.9776 55.1381C25.4308 57.6848 24 61.139 24 64.7407C24 66.9018 24.8585 68.9743 26.3865 70.5024C27.9146 72.0304 29.9871 72.8889 32.1481 72.8889H64.7407C66.9018 72.8889 68.9743 72.0304 70.5024 70.5024C72.0304 68.9743 72.8889 66.9018 72.8889 64.7407C72.8889 61.139 71.4581 57.6848 68.9113 55.1381C66.3645 52.5913 62.9104 51.1605 59.3086 51.1605H37.5802Z" fill="white"/>
<circle cx="80" cy="79" r="14" fill="#7163E8"/>
<path d="M86.125 78.6875H80.875V73.8125C80.875 73.597 80.7828 73.3903 80.6187 73.238C80.4546 73.0856 80.2321 73 80 73C79.7679 73 79.5454 73.0856 79.3813 73.238C79.2172 73.3903 79.125 73.597 79.125 73.8125V78.6875H73.875C73.6429 78.6875 73.4204 78.7731 73.2563 78.9255C73.0922 79.0778 73 79.2845 73 79.5C73 79.7155 73.0922 79.9222 73.2563 80.0745C73.4204 80.2269 73.6429 80.3125 73.875 80.3125H79.125V85.1875C79.125 85.403 79.2172 85.6097 79.3813 85.762C79.5454 85.9144 79.7679 86 80 86C80.2321 86 80.4546 85.9144 80.6187 85.762C80.7828 85.6097 80.875 85.403 80.875 85.1875V80.3125H86.125C86.3571 80.3125 86.5796 80.2269 86.7437 80.0745C86.9078 79.9222 87 79.7155 87 79.5C87 79.2845 86.9078 79.0778 86.7437 78.9255C86.5796 78.7731 86.3571 78.6875 86.125 78.6875Z" fill="white"/>
</svg>
