<svg width="20" height="20" viewBox="0 0 18 5" fill="none" xmlns="http://www.w3.org/2000/svg">
<path d="M4.38712 2.4966C4.38712 2.87302 4.3435 3.21542 4.25626 3.52381C4.16902 3.82766 4.03357 4.0907 3.84992 4.31293C3.67085 4.53515 3.44358 4.70522 3.16809 4.82313C2.8926 4.94104 2.56891 5 2.197 5C1.8205 5 1.49451 4.94104 1.21903 4.82313C0.94354 4.70068 0.716264 4.53061 0.537198 4.31293C0.358132 4.0907 0.222685 3.8254 0.130856 3.51701C0.0436186 3.20862 0 2.86621 0 2.4898C0 1.98639 0.0780544 1.54875 0.234163 1.17687C0.394863 0.804989 0.638209 0.517007 0.964201 0.312925C1.29019 0.104308 1.70342 0 2.20389 0C2.69976 0 3.1084 0.104308 3.4298 0.312925C3.7512 0.517007 3.98996 0.807256 4.14606 1.18367C4.30677 1.55556 4.38712 1.9932 4.38712 2.4966ZM0.977975 2.4966C0.977975 2.86395 1.0193 3.17914 1.10194 3.44218C1.18459 3.70521 1.31545 3.90703 1.49451 4.04762C1.67817 4.18821 1.91233 4.2585 2.197 4.2585C2.48167 4.2585 2.71354 4.18821 2.8926 4.04762C3.07167 3.90703 3.20253 3.70521 3.28517 3.44218C3.36782 3.17914 3.40914 2.86395 3.40914 2.4966C3.40914 1.94785 3.31272 1.51701 3.11988 1.20408C2.93163 0.891156 2.624 0.734694 2.197 0.734694C1.91233 0.734694 1.67817 0.804988 1.49451 0.945578C1.31545 1.08617 1.18459 1.28798 1.10194 1.55102C1.0193 1.81406 0.977975 2.12925 0.977975 2.4966Z" fill="#9D9D9D"/>
<path d="M11.1936 2.4966C11.1936 2.87302 11.1499 3.21542 11.0627 3.52381C10.9755 3.82766 10.84 4.0907 10.6564 4.31293C10.4773 4.53515 10.25 4.70522 9.97453 4.82313C9.69905 4.94104 9.37535 5 9.00344 5C8.62695 5 8.30095 4.94104 8.02547 4.82313C7.74998 4.70068 7.52271 4.53061 7.34364 4.31293C7.16457 4.0907 7.02913 3.8254 6.9373 3.51701C6.85006 3.20862 6.80644 2.86621 6.80644 2.4898C6.80644 1.98639 6.8845 1.54875 7.04061 1.17687C7.20131 0.804989 7.44465 0.517007 7.77064 0.312925C8.09664 0.104308 8.50986 0 9.01033 0C9.50621 0 9.91484 0.104308 10.2362 0.312925C10.5576 0.517007 10.7964 0.807256 10.9525 1.18367C11.1132 1.55556 11.1936 1.9932 11.1936 2.4966ZM7.78442 2.4966C7.78442 2.86395 7.82574 3.17914 7.90839 3.44218C7.99103 3.70521 8.12189 3.90703 8.30095 4.04762C8.48461 4.18821 8.71877 4.2585 9.00344 4.2585C9.28811 4.2585 9.51998 4.18821 9.69905 4.04762C9.87811 3.90703 10.009 3.70521 10.0916 3.44218C10.1743 3.17914 10.2156 2.86395 10.2156 2.4966C10.2156 1.94785 10.1192 1.51701 9.92632 1.20408C9.73807 0.891156 9.43045 0.734694 9.00344 0.734694C8.71877 0.734694 8.48461 0.804988 8.30095 0.945578C8.12189 1.08617 7.99103 1.28798 7.90839 1.55102C7.82574 1.81406 7.78442 2.12925 7.78442 2.4966Z" fill="#9D9D9D"/>
<path d="M18 2.4966C18 2.87302 17.9564 3.21542 17.8691 3.52381C17.7819 3.82766 17.6465 4.0907 17.4628 4.31293C17.2837 4.53515 17.0565 4.70522 16.781 4.82313C16.5055 4.94104 16.1818 5 15.8099 5C15.4334 5 15.1074 4.94104 14.8319 4.82313C14.5564 4.70068 14.3291 4.53061 14.1501 4.31293C13.971 4.0907 13.8356 3.8254 13.7437 3.51701C13.6565 3.20862 13.6129 2.86621 13.6129 2.4898C13.6129 1.98639 13.6909 1.54875 13.847 1.17687C14.0077 0.804989 14.2511 0.517007 14.5771 0.312925C14.9031 0.104308 15.3163 0 15.8168 0C16.3126 0 16.7213 0.104308 17.0427 0.312925C17.3641 0.517007 17.6028 0.807256 17.7589 1.18367C17.9196 1.55556 18 1.9932 18 2.4966ZM14.5909 2.4966C14.5909 2.86395 14.6322 3.17914 14.7148 3.44218C14.7975 3.70521 14.9283 3.90703 15.1074 4.04762C15.2911 4.18821 15.5252 4.2585 15.8099 4.2585C16.0946 4.2585 16.3264 4.18821 16.5055 4.04762C16.6846 3.90703 16.8154 3.70521 16.8981 3.44218C16.9807 3.17914 17.022 2.86395 17.022 2.4966C17.022 1.94785 16.9256 1.51701 16.7328 1.20408C16.5445 0.891156 16.2369 0.734694 15.8099 0.734694C15.5252 0.734694 15.2911 0.804988 15.1074 0.945578C14.9283 1.08617 14.7975 1.28798 14.7148 1.55102C14.6322 1.81406 14.5909 2.12925 14.5909 2.4966Z" fill="#9D9D9D"/>
</svg>
