<svg width="21" height="13" viewBox="0 0 21 13" fill="none" xmlns="http://www.w3.org/2000/svg">
<path d="M1.77057 12.158C1.67039 12.261 1.55253 12.3415 1.42375 12.395C1.29496 12.4484 1.15775 12.4738 1.01996 12.4695C0.882178 12.4653 0.746509 12.4316 0.620702 12.3703C0.494896 12.309 0.381417 12.2213 0.286743 12.1123C0.19207 12.0033 0.118056 11.8751 0.068929 11.7349C0.0198015 11.5948 -0.00347807 11.4455 0.000419704 11.2956C0.00431747 11.1457 0.0353161 10.9981 0.0916457 10.8612C0.147975 10.7243 0.228533 10.6008 0.328718 10.4978L9.77317 0.79257C9.96801 0.592144 10.226 0.480466 10.4941 0.480466C10.7622 0.480466 11.0202 0.592144 11.215 0.79257L20.6605 10.4978C20.7629 10.6001 20.8456 10.7236 20.9037 10.861C20.9619 10.9984 20.9944 11.147 20.9993 11.2981C21.0043 11.4493 20.9816 11.6 20.9325 11.7416C20.8834 11.8831 20.809 12.0126 20.7136 12.1226C20.6181 12.2326 20.5036 12.3208 20.3765 12.3822C20.2495 12.4436 20.1125 12.4769 19.9735 12.4802C19.8345 12.4835 19.6963 12.4567 19.5669 12.4014C19.4375 12.3461 19.3195 12.2633 19.2197 12.158L10.4941 3.19262L1.77057 12.158Z" fill="#CCCDD0"/>
</svg>
