<svg width="96" height="36" viewBox="0 0 96 36" fill="none" xmlns="http://www.w3.org/2000/svg">
<rect width="96" height="36" rx="18" fill="#F3F2FD"/>
<path d="M20.4505 11.968H27.5385V21.872H20.4505V11.968ZM25.4585 13.632H22.5305V20.208H25.4585V13.632ZM29.8265 10.64H31.9385V25.408H29.8265V10.64ZM37.0733 17.584V20.24C39.3133 20.224 41.1693 20.112 43.2493 19.76L43.4733 21.472C41.0733 21.888 38.9132 21.984 36.2413 21.984H34.9132V15.92H39.6973V13.568H34.8972V11.888H41.8573V17.584H37.0733ZM44.2733 10.624H46.3853V25.408H44.2733V10.624ZM52.032 15.504V17.568H58.336V15.504H52.032ZM56.24 21.952H61.872V23.664H48.528V21.952H54.128V19.248H49.936V11.552H52.032V13.84H58.336V11.552H60.416V19.248H56.24V21.952ZM63.7428 12.16H70.8148C70.8148 16.672 69.2948 20.352 64.0628 22.88L62.9588 21.216C66.7188 19.408 68.3508 17.104 68.6548 13.84H63.7428V12.16ZM73.0708 10.624H75.1988V25.36H73.0708V10.624Z" fill="#7163E8"/>
</svg>
